<svg width="40" height="40" viewBox="0 0 40 40" fill="none" xmlns="http://www.w3.org/2000/svg">
<path d="M20 1.25C9.65947 1.25 1.25 9.65947 1.25 20C1.25 30.3405 9.65947 38.75 20 38.75C30.3405 38.75 38.75 30.3405 38.75 20C38.75 9.65947 30.3405 1.25 20 1.25ZM20 3.75C28.9894 3.75 36.2598 11.0106 36.2598 20C36.2598 28.9894 28.9894 36.2598 20 36.2598C11.0106 36.2598 3.75 28.9894 3.75 20C3.75 11.0106 11.0106 3.75 20 3.75ZM19.9829 10.0073C19.6527 10.0131 19.3382 10.1494 19.1081 10.3864C18.878 10.6233 18.751 10.9417 18.7549 11.272V12.3242C16.7366 12.7028 15.0098 14.0025 15.0098 16.2549C15.0098 17.8174 15.7142 19.0811 16.6602 19.8169C17.6062 20.5527 18.6743 20.8789 19.6118 21.1914C20.5493 21.5039 21.3586 21.8027 21.8188 22.1606C22.2791 22.5186 22.5 22.8198 22.5 23.7573C22.5 25.8407 17.5098 25.8407 17.5098 23.7573C17.5135 23.5908 17.4839 23.4253 17.4227 23.2704C17.3615 23.1155 17.2701 22.9744 17.1536 22.8554C17.0372 22.7363 16.8981 22.6417 16.7446 22.5771C16.5911 22.5126 16.4263 22.4793 16.2598 22.4793C16.0932 22.4793 15.9284 22.5126 15.7749 22.5771C15.6214 22.6417 15.4824 22.7363 15.3659 22.8554C15.2495 22.9744 15.158 23.1155 15.0968 23.2704C15.0357 23.4253 15.0061 23.5908 15.0098 23.7573C15.0098 26.0079 16.7381 27.3101 18.7549 27.6904V28.7378C18.7512 28.9043 18.7808 29.0698 18.8419 29.2247C18.9031 29.3796 18.9946 29.5207 19.111 29.6398C19.2275 29.7588 19.3665 29.8534 19.52 29.918C19.6735 29.9826 19.8384 30.0158 20.0049 30.0158C20.1714 30.0158 20.3363 29.9826 20.4897 29.918C20.6432 29.8534 20.7823 29.7588 20.8987 29.6398C21.0152 29.5207 21.1067 29.3796 21.1678 29.2247C21.229 29.0698 21.2586 28.9043 21.2549 28.7378V27.6904C23.272 27.3103 25.0024 26.0082 25.0024 23.7573C25.0024 22.1948 24.2956 20.9311 23.3496 20.1953C22.4036 19.4595 21.3354 19.1309 20.3979 18.8184C19.4604 18.5059 18.6512 18.2095 18.1909 17.8516C17.7307 17.4936 17.5098 17.1924 17.5098 16.2549C17.5098 14.1716 22.5 14.1716 22.5 16.2549C22.5 16.5867 22.6318 16.905 22.8665 17.1396C23.1011 17.3743 23.4194 17.5061 23.7512 17.5061C24.0831 17.5061 24.4013 17.3743 24.636 17.1396C24.8706 16.905 25.0024 16.5867 25.0024 16.2549C25.0024 14.0059 23.2714 12.7075 21.2549 12.3267V11.272C21.2568 11.1047 21.2252 10.9388 21.1619 10.784C21.0986 10.6292 21.0049 10.4887 20.8863 10.3707C20.7677 10.2528 20.6266 10.1599 20.4714 10.0975C20.3163 10.035 20.1501 10.0044 19.9829 10.0073Z" fill="#4527A0"/>
</svg>
