<svg width="236" height="60" viewBox="0 0 236 60" fill="none" xmlns="http://www.w3.org/2000/svg">
<g clip-path="url(#clip0_71_135)">
<path d="M75.8958 7.62H93.1553V54.39H75.8958V7.62ZM83.787 43.19H85.3168V19.86H83.787V43.19ZM125.997 8.65V20.11H122.727V22.48H111.67V20.11H108.02V22.48H97.2381V20.11H94.5162V8.65H97.2381V6.74H108.02V8.65H111.67V6.74H122.727V8.65H125.997ZM94.5162 23.73H125.997V54.75H94.5162V23.73ZM104.539 32.55V36.37H106.501V32.55H104.539ZM104.539 45.98H106.501V42.16H104.539V45.98ZM115.268 32.55H113.306V36.37H115.268V32.55ZM115.268 45.98V42.16H113.306V45.98H115.268Z" fill="#FAFAFA"/>
<path d="M180.782 41.79V54.54H130.354V41.79H135.523L133.023 25.84V23.93H149.85L152.192 41.79H158.459L160.801 23.93H177.628V25.84L175.117 41.79H180.782ZM180.403 22.23H130.787V9.02H145.873V6.34H165.263V9.02H180.403V22.23Z" fill="#FAFAFA"/>
<path d="M201.798 43.08H205.775V52.01H201.798V54.8H189.106V52.01H185.076V43.08H189.106V41.27H185.076V19.38H189.106V17.62H185.076V8.99999H189.106V7.24999H201.798V8.99999H205.722V17.62H201.798V19.38H205.722V41.27H201.798V43.08ZM197.23 26.41H193.421V27.86H197.23V26.41ZM193.411 34.1H197.219V32.65H193.411V34.1ZM207.083 21.4H220.049V54.7H206.925V49.9L209.816 48.92V47.17L208.349 47.74H207.041V40.41L209.816 39.48V38.71L207.041 38.09V31.59H208.349L209.816 31.95V30.09H207.094V21.42L207.083 21.4ZM235.019 11.7V20.11H225.324L221.948 18.05H220.038L216.937 20.11H206.967V11.7L215.787 6.68999H226.189L235.009 11.7H235.019ZM221.188 21.4H234.966V54.7H221.674V49.9L224.068 48.92V47.53L222.539 48.1H221.231V40.41L224.058 39.48V38.71L221.167 38.09V31.59H222.528L224.058 31.95V30.09H221.167V21.42L221.188 21.4Z" fill="#FAFAFA"/>
<path d="M31.0904 0.93C13.9153 0.93 0 14.12 0 30.4C0 46.68 13.9153 59.87 31.0904 59.87C48.2656 59.87 62.1808 46.68 62.1808 30.4C62.1808 14.12 48.255 0.93 31.0904 0.93ZM45.4066 42.75C44.2144 44.73 42.5054 46.25 40.2793 47.31C38.0533 48.37 35.1099 48.91 31.4808 48.91C27.8516 48.91 25.1403 48.52 23.0936 47.73C21.047 46.94 19.359 45.79 18.0403 44.26C16.7215 42.74 15.7087 40.83 14.9913 38.53L25.8155 37.17C26.2375 39.24 26.9021 40.67 27.7989 41.47C28.6956 42.27 29.835 42.67 31.217 42.67C32.6729 42.67 33.8756 42.17 34.8462 41.16C35.8168 40.15 36.2915 38.81 36.2915 37.13C36.2915 35.45 35.8273 34.09 34.8989 33.15C33.9705 32.21 32.7045 31.74 31.1115 31.74C30.257 31.74 29.0859 31.94 27.5984 32.34L28.1576 25.01C28.7589 25.09 29.2336 25.14 29.5712 25.14C30.9849 25.14 32.1771 24.71 33.116 23.85C34.0549 22.99 34.5402 21.98 34.5402 20.8C34.5402 19.62 34.1815 18.78 33.4747 18.1C32.7678 17.43 31.7867 17.09 30.5524 17.09C29.318 17.09 28.242 17.46 27.4402 18.19C26.6384 18.92 26.1003 20.2 25.8155 22.03L15.5821 20.29C16.4367 17.2 18.0719 14.83 20.4878 13.18C22.9037 11.53 26.3324 10.71 30.7634 10.71C35.8484 10.71 39.5303 11.61 41.7985 13.41C44.0667 15.21 45.2061 17.47 45.2061 20.19C45.2061 21.79 44.7419 23.23 43.8241 24.53C42.9063 25.83 41.5137 26.96 39.6464 27.93C41.155 28.28 42.3049 28.7 43.1067 29.17C44.4043 29.93 45.4066 30.92 46.124 32.16C46.8414 33.39 47.2001 34.87 47.2001 36.58C47.2001 38.73 46.6093 40.79 45.4171 42.77L45.4066 42.75Z" fill="#FAFAFA"/>
</g>
<defs>
<clipPath id="clip0_71_135">
<rect width="235.019" height="58.93" fill="white" transform="translate(0 0.93)"/>
</clipPath>
</defs>
</svg>
