<svg width="100" height="25" viewBox="0 0 100 25" fill="none" xmlns="http://www.w3.org/2000/svg">
<path d="M8.5 0.949998V2.8H9.35V8.8H8.5V10.325H9.05V16.675L8.5 16.875V24H1.125V21.85L2.15 20.65V19.05H0.95V12.725L2.15 12.3V8.8H1.125V2.8H2.15V0.949998H8.5ZM23.625 1.05V8.4H9.925V1.05H23.625ZM17.775 5.45V4.5H15.8V5.45H17.775ZM9.6 9.125H24.025V24.05H16.325V22.25L17.8 20.85V20.6H15.45V24H9.6V9.125ZM17.8 13.9H15.45V14.625H17.8V13.9ZM15.45 17.925H17.8V17.225H15.45V17.925ZM34.8 0.725V1.6H37.8V5.725H34.8V6.375H37.775V9.975H26.225V6.375H29.1V5.725H26.025V1.6H29.1V0.725H34.8ZM49.075 11.6L47.85 13.95H46.45L49.05 18.375V24H44.975L43.675 20.5H43.45L42.125 24H38.275V18.375L40.925 13.1V11.9L39.675 14.2H38.3V3.85L40.1 0.749999H44.65V1.85H49.075V11.6ZM42.775 8.475H44.45V7.55H43.275L42.775 8.475ZM26.2 10.575H37.7V13.8H26.2V10.575ZM26.075 18.025V14.425H37.8V18.025H34.4V24.05H29.35V18.025H26.075ZM25.8 19.95L26.525 18.6H28.8V23.825H25.8V19.95ZM34.925 18.6H37.025L37.75 19.95V23.825H34.925V18.6ZM72.4 10.7H66.35V11.375H73.6V15.2H66.35V19.675H74.025V23.95H51.025V19.675H58.575V15.2H51.425V11.375H58.575V10.7H52.625V9.4H50.9V3.875L58.675 0.549999H65.975L74.15 4V9.4H72.4V10.7ZM61.05 5.825L58.575 6.8H66.275L63.725 5.825H61.05ZM57.975 15.825V19.05H53L51.8 17.95V15.825H57.975ZM71.95 19.05H66.925V15.825H73.15V17.95L71.95 19.05ZM84.475 0.574999V1.625H87.925V8H87.375V12.55L86.45 13.2L87.875 14.4V19.775H87.25V23.95H76.625V19.775H75.85V14.4L77.4 13.4L76.575 12.7V10.875H80.875L81.7 11.475L83.025 10.55V10.325H76.575V8.05H75.875V1.625H79.1V0.574999H84.475ZM98.175 20.825L99.05 22.425V23.975H94.375L93.775 21.625H93.475L92.8 23.975H88.125V22.425L89.2 20.825H88.45V6.725H90.85L91.1 6H88.5V1.025H98.975V6H96.175L95.95 6.725H98.9V20.825H98.175ZM82.85 7.325H84.125V5.9H79.475V6.525H82.85V7.325ZM94.725 11.325V10.625H92.4V11.325H94.725ZM94.725 14.4V13.725H92.4V14.4H94.725ZM81.9 15.275L80.575 16.175H83.15L81.9 15.275ZM92.4 16.725V17.425H94.725V16.725H92.4ZM82.925 20.625V19.55H80.875V20.625H82.925Z" fill="#4527A0"/>
</svg>
