<svg width="173" height="34" viewBox="0 0 173 34" fill="none" xmlns="http://www.w3.org/2000/svg">
<path d="M32.11 26.7642H22.065V33.0992H10.27V26.7642H0.715V22.9492L2.43 21.2342V20.9192H0.89V18.1892L3.515 15.8092H0.75V0.864246H32.32V15.8092H17.025L11.88 20.4992H13.35L17.48 16.7192H27.91V18.2242L23.92 21.9692H25.46L29.1 18.4342H32.11V26.7642ZM12.615 5.97425H9.815V7.09425H12.615V5.97425ZM22.835 7.09425V5.97425H20.035V7.09425H22.835ZM9.815 10.0342V11.1542H12.615V10.0342H9.815ZM20.035 11.1542H22.835V10.0342H20.035V11.1542ZM0.26 29.2492L2.29 27.4992H9.465V32.7142H0.26V29.2492ZM30.43 27.4992L32.46 29.2492V32.7142H22.905V27.4992H30.43ZM67.775 10.4892V14.5142H47.405V10.4892H52.865V9.71925H47.545V6.28925H52.865V5.51925H47.405V1.42425H52.865V0.409246H61.545V1.42425H67.74V5.51925H61.545V6.28925H67.495V9.71925H61.545V10.4892H67.775ZM35.575 7.68925V0.899246H46.74V6.53425L45.235 7.51425V8.91425H46.635V16.5792H45.235V17.6992L46.6 19.3092V27.4292H45.235V32.9942H37.465V28.3042L36.555 29.9842H35.19V19.8692L37.255 16.5792H35.47V8.91425H37.465V7.68925H35.575ZM66.41 29.3892L68.055 31.3142V32.9942H59.655L58.22 30.5092H56.995L55.56 32.9942H46.95V31.3142L48.665 29.3892H47.475V15.2842H67.6V29.3892H66.41ZM60.04 19.4492H54.72V20.2542H60.04V19.4492ZM60.04 23.3342V22.5292H54.72V23.3342H60.04ZM54.72 25.6442V26.4492H60.04V25.6442H54.72ZM102.39 1.87925V20.7092H81.39V4.22425L85.03 0.549246H92.275V1.87925H102.39ZM70.575 6.18425L74.32 0.969247H80.69V5.48425L78.135 8.94925V9.19425H80.655V15.1442L78.52 17.7692V17.9792H80.585V24.6292H70.435V16.7892L72.29 13.9892V13.8142H70.575V6.18425ZM96.195 16.2642V7.65425H92.625V8.28425H95.565V13.4642L93.675 15.6692H88.04V13.0092H88.81L88.285 12.0992V11.5392H91.015L91.61 12.5192L92.205 11.8542V11.0142H88.04V8.77425L89.055 7.65425H87.445V16.2642H96.195ZM93.29 21.3392V26.7292H97.07V33.0642H87.305V21.3392H93.29ZM93.99 26.0292V21.3742H95.95L97.035 22.8092V26.0292H93.99ZM81.32 32.5742V21.4092H86.64V32.5742H81.32ZM97.735 21.4092H102.775V32.5742H97.735V21.4092ZM70.225 26.9392L71.17 25.4692H73.9V32.9592H70.225V26.9392ZM74.53 32.9592V25.4692H77.47V32.9592H74.53ZM78.135 32.9592V25.4692H80.62V32.9592H78.135ZM135.36 14.4092H126.89V15.3542H137.04V20.7092H126.89V26.9742H137.635V32.9592H105.435V26.9742H116.005V20.7092H105.995V15.3542H116.005V14.4092H107.675V12.5892H105.26V4.85425L116.145 0.199247H126.365L137.81 5.02925V12.5892H135.36V14.4092ZM119.47 7.58425L116.005 8.94925H126.785L123.215 7.58425H119.47ZM115.165 21.5842V26.0992H108.2L106.52 24.5592V21.5842H115.165ZM134.73 26.0992H127.695V21.5842H136.41V24.5592L134.73 26.0992ZM152.265 0.234246V1.70425H157.095V10.6292H156.325V16.9992L155.03 17.9092L157.025 19.5892V27.1142H156.15V32.9592H141.275V27.1142H140.19V19.5892L142.36 18.1892L141.205 17.2092V14.6542H147.225L148.38 15.4942L150.235 14.1992V13.8842H141.205V10.6992H140.225V1.70425H144.74V0.234246H152.265ZM171.445 28.5842L172.67 30.8242V32.9942H166.125L165.285 29.7042H164.865L163.92 32.9942H157.375V30.8242L158.88 28.5842H157.83V8.84425H161.19L161.54 7.82925H157.9V0.864246H172.565V7.82925H168.645L168.33 8.84425H172.46V28.5842H171.445ZM149.99 9.68425H151.775V7.68925H145.265V8.56425H149.99V9.68425ZM166.615 15.2842V14.3042H163.36V15.2842H166.615ZM166.615 19.5892V18.6442H163.36V19.5892H166.615ZM148.66 20.8142L146.805 22.0742H150.41L148.66 20.8142ZM163.36 22.8442V23.8242H166.615V22.8442H163.36ZM150.095 28.3042V26.7992H147.225V28.3042H150.095Z" fill="#4527A0"/>
</svg>
