<svg width="236" height="58" viewBox="0 0 236 58" fill="none" xmlns="http://www.w3.org/2000/svg">
<path d="M17.6 44.3092V2.24924H37.7V57.4492H13.22V53.3092H0.38V14.5492L6.44 6.02925H14.66V47.6092L17.6 44.3092ZM48.86 6.02925L54.92 14.5492V53.0692H40.64V6.02925H48.86ZM80.24 0.809245V3.32924H88.52V18.6292H87.2V29.5492L84.98 31.1092L88.4 33.9892V46.8892H86.9V56.9092H61.4V46.8892H59.54V33.9892L63.26 31.5892L61.28 29.9092V25.5292H71.6L73.58 26.9692L76.76 24.7492V24.2092H61.28V18.7492H59.6V3.32924H67.34V0.809245H80.24ZM113.12 49.4092L115.22 53.2492V56.9692H104L102.56 51.3292H101.84L100.22 56.9692H89V53.2492L91.58 49.4092H89.78V15.5692H95.54L96.14 13.8292H89.9V1.88925H115.04V13.8292H108.32L107.78 15.5692H114.86V49.4092H113.12ZM76.34 17.0092H79.4V13.5892H68.24V15.0892H76.34V17.0092ZM104.84 26.6092V24.9292H99.26V26.6092H104.84ZM104.84 33.9892V32.3692H99.26V33.9892H104.84ZM74.06 36.0892L70.88 38.2492H77.06L74.06 36.0892ZM99.26 39.5692V41.2492H104.84V39.5692H99.26ZM76.52 48.9292V46.3492H71.6V48.9292H76.52ZM137.9 1.70924V6.14925H139.94V20.5492H137.9V24.2092H139.22V39.4492L137.9 39.9292V57.0292H120.2V51.8692L122.66 48.9892V45.1492H119.78V29.9692L122.66 28.9492V20.5492H120.2V6.14925H122.66V1.70924H137.9ZM174.2 1.94924V19.5892H141.32V1.94924H174.2ZM160.16 12.5092V10.2292H155.42V12.5092H160.16ZM140.54 21.3292H175.16V57.1492H156.68V52.8292L160.22 49.4692V48.8692H154.58V57.0292H140.54V21.3292ZM160.22 32.7892H154.58V34.5292H160.22V32.7892ZM154.58 42.4492H160.22V40.7692H154.58V42.4492ZM201.02 1.16925V3.26925H208.22V13.1692H201.02V14.7292H208.16V23.3692H180.44V14.7292H187.34V13.1692H179.96V3.26925H187.34V1.16925H201.02ZM235.28 27.2692L232.34 32.9092H228.98L235.22 43.5292V57.0292H225.44L222.32 48.6292H221.78L218.6 57.0292H209.36V43.5292L215.72 30.8692V27.9892L212.72 33.5092H209.42V8.66925L213.74 1.22925H224.66V3.86924H235.28V27.2692ZM220.16 19.7692H224.18V17.5492H221.36L220.16 19.7692ZM180.38 24.8092H207.98V32.5492H180.38V24.8092ZM180.08 42.6892V34.0492H208.22V42.6892H200.06V57.1492H187.94V42.6892H180.08ZM179.42 47.3092L181.16 44.0692H186.62V56.6092H179.42V47.3092ZM201.32 44.0692H206.36L208.1 47.3092V56.6092H201.32V44.0692Z" fill="#222222"/>
</svg>
