<svg width="135" height="20" viewBox="0 0 135 20" fill="none" xmlns="http://www.w3.org/2000/svg">
<path d="M9.92 1.76H15.74V18.3H10.62L7.18 12.62H6.76V18.28H0.84V1.76H6.14L9.48 7.4H9.92V1.76ZM30.602 1.68V7.46H27.182V18.3H20.562V7.46H17.142V1.68H30.602ZM44.1123 7.4L46.1323 9.04V15.42L43.7123 17.68H42.2523V19.3H36.1923V17.68H32.4323V12.98H39.5723V11.96H34.4723L32.4523 10.3V4.24L34.8723 1.98H36.1923V0.5H42.2523V1.98H45.6923V6.38H38.5923V7.4H44.1123ZM61.0838 7.76L62.6238 9.18V16.4L60.5438 18.48H50.3838L48.3038 16.4V3.9L50.9038 1.32H62.1638V6.38H54.2438V7.76H61.0838ZM56.9838 13.66V12.02H54.2438V13.66H56.9838ZM64.5742 16.22V3.68L66.8942 1.3H76.5342L78.8742 3.68V16.22L76.5342 18.46H66.8942L64.5742 16.22ZM70.5542 6.9V12.98H72.8942V6.9H70.5542ZM80.9428 13.12H86.1028V15.9L83.7828 19.86H80.9428V13.12ZM88.0898 16.22V3.68L90.4098 1.3H100.05L102.39 3.68V16.22L100.05 18.46H90.4098L88.0898 16.22ZM94.0698 6.9V12.98H96.4098V6.9H94.0698ZM104.398 16.22V3.68L106.718 1.3H116.358L118.698 3.68V16.22L116.358 18.46H106.718L104.398 16.22ZM110.378 6.9V12.98H112.718V6.9H110.378ZM120.707 16.22V3.68L123.027 1.3H132.667L135.007 3.68V16.22L132.667 18.46H123.027L120.707 16.22ZM126.687 6.9V12.98H129.027V6.9H126.687Z" fill="#4527A0"/>
</svg>
