<svg width="356" height="58" viewBox="0 0 356 58" fill="none" xmlns="http://www.w3.org/2000/svg">
<path d="M49.46 40.6492L55.46 49.5892V57.1492H37.1L28.64 40.6492H19.34V43.1092H26.9V51.4492L21.32 56.9692H0.44V1.76925H54.38V26.7292H45.44V29.0692H54.62V40.6492H49.46ZM36.5 14.0692H18.86V16.4092H36.44L36.5 14.0692ZM19.34 26.7292V29.0692H26.54V26.7292H19.34ZM114.8 1.94924V22.3492H60.2V1.94924H114.8ZM74.84 11.2492V13.9492H78.08V11.2492H74.84ZM88.7 11.2492H85.58V13.9492H88.7V11.2492ZM99.68 13.9492V11.2492H96.26V13.9492H99.68ZM112.34 40.1092L115.28 43.5292V55.4692H108.38L105.14 51.2092H104.48L101.36 55.4692H96.68V57.5092H78.5V55.4692H73.7L70.58 51.2092H69.92L66.68 55.4692H59.78V43.5292L62.72 40.1092V34.8892H77V40.4692L78.5 41.9092V33.3892H60.98V23.9692H114.32V30.2692L109.46 33.3892H96.68V41.7892L98.06 40.4692V34.8892H112.34V40.1092ZM173.12 44.6692L175.1 47.0692V56.9092H168.68L165.86 53.9092L162.8 57.0292H156.56V47.0692L158.6 44.8492L156.56 42.5692V34.6492H163.28L165.44 37.1692V33.3292H155.42V52.2292L150.86 57.0292H143.72V2.36925H174.8V17.9692L171.32 22.7692H158.06V14.3092H161.9V12.9892H156.68V24.0292H175.04V42.5692L173.12 44.6692ZM120.08 57.2092V2.48924H142.22V57.2092H130.94V48.1492L132.26 46.2892V41.3692H129.56V57.2092H120.08ZM131.84 15.8692H129.74V19.5292H131.84V15.8692ZM129.74 32.0092H131.84V28.8892H129.74V32.0092ZM225.26 31.7092L219.86 28.2292L216.2 30.6892H221.24V33.0892H234.92V56.9092H217.88V50.0692L220.46 47.8492V43.4692H218L214.82 56.9092H200.9V52.8292L205.22 43.4692H203.42L202.1 46.1692H198.08V31.0492H196.88V56.9092H180.86V50.3692L185 46.5292V44.2492L181.28 47.5492H179.18V33.9892L183.26 31.0492H179.42V20.6092H181.52L179.84 17.4292V14.5492H189.32L190.46 16.5892L191.9 13.6492V12.9292H179.72V2.06925H202.7V16.3492L200.48 20.6092H204.62V23.9092L208.58 21.6292L204.32 18.8692V14.5492H216.68L218.96 16.0492L221.78 14.0692V13.1092H204.32V5.24924L208.46 1.04925H220.1V2.90925H234.62V18.8692L231.02 21.5092L235.16 24.2092V31.7092H225.26ZM204.62 33.0892H207.8V31.7092H204.62V33.0892ZM285.98 3.68925H295.1V17.0692H260.24V3.68925H268.58V0.809245H285.98V3.68925ZM239.3 15.3292L246.5 1.82925H258.62V56.9692H242.6V35.9092H239.3V15.3292ZM294.5 18.6892V27.1492H260.48V18.6892H294.5ZM260.48 36.8692V28.7692H294.5V36.8692H260.48ZM260.42 56.9092V38.6092H294.8V56.9092H260.42ZM274.16 46.5892V49.0492H280.88V46.5892H274.16ZM326.54 12.7492H322.88L325.94 16.6492V19.4692H313.58L311.12 16.3492L309.32 19.4692H299.66V9.44924L304.4 1.40924H316.46V3.08924H326.54V12.7492ZM344.78 3.08924H355.22V12.7492H351.62L354.62 16.5892V19.4692H342.08L339.56 16.2292L337.64 19.4692H327.74V9.44924L332.48 1.40924H344.78V3.08924ZM320.66 20.6092V22.8292H324.56V34.4692H320.66V35.5492L324.44 39.0292V50.3092H320.66V57.0292H305.6V51.8692L302.42 55.1692H299.66V38.8492L304.64 34.4692H300.08V22.8292H305.6V20.6092H320.66ZM326.06 57.1492V20.8492H355.04V57.1492H326.06ZM342.92 30.2692H337.94V32.0692H342.92V30.2692ZM337.94 39.8692H342.92V38.0692H337.94V39.8692ZM337.94 47.8492H342.92V45.9892H337.94V47.8492Z" fill="#222222"/>
</svg>
