<svg width="236" height="57" viewBox="0 0 236 57" fill="none" xmlns="http://www.w3.org/2000/svg">
<path d="M52.9 37.4292L55.78 41.6892V56.0292H46.78L43.18 51.4692L40.3 56.0292H31.18V41.6892L33.94 37.7292L31.18 34.1892V20.0292H39.88L42.88 24.1092V18.5292H31.18V5.14925L35.14 0.289246H46.66V2.62924H55.54V33.2892L52.9 37.4292ZM0.34 15.6492V1.00925H29.68V15.6492H25.24V19.5492H29.14V36.8292H25.24V40.6092H29.68V55.9092H0.64V17.4492H9.28V40.6092H10.96V15.6492H0.34ZM105.88 43.3092L115.84 47.2092V55.9092H102.28L95.5 50.6892V55.9092H78.64V51.4692L72.7 55.9092H60.28V46.9092L68.44 43.4892H61.36V27.3492H78.64V26.0292H60.7V17.6892H78.64V16.4892H74.08L71.62 13.6092L69.82 16.4892H60.16V7.90924L64.9 0.409244H76.96V1.96925H87.04V10.2492H83.38L86.44 13.8492V15.5292H88.24V7.90924L92.98 0.409244H105.28V1.96925H115.72V10.2492H112.12L115.12 13.7892V16.4892H102.58L100.06 13.4892L98.14 16.4892H95.5V17.6892H115.72V26.0292H95.5V27.3492H114.88V40.1892L111.82 43.3092H105.88ZM95.5 35.0292V39.2292L97.18 39.8892V36.4092H102.22V35.0292H95.5ZM76.66 40.0092L78.64 39.2292V35.9292H76.66V40.0092ZM135.22 0.289246V2.68925H138.7V16.1892H120.46V2.68925H123.82V0.289246H135.22ZM173.86 48.3492L175.84 51.0492V56.0292H165.4L163.9 54.1092L162.1 55.9092H156.1V50.0292L158.74 47.4492L157.48 45.7692V40.8492H154.84V42.1092H156.34V48.1692L154.84 48.5892V56.2692H140.2V51.8892L144.58 50.0892V49.6092H139.84V42.1092H144.58V40.8492H139.84V33.4092H144.58V32.2092H140.14V26.8692H156.4V31.1292L154.84 31.7292V33.4092H157.48V25.7292H139.9V19.0092H149.8V17.6292H140.2V12.2292H149.8V10.9092H140.02V3.40925H143.86L142.9 1.00925V0.349245H155.32L156.52 3.40925H157.84L158.86 0.349245H171.82V1.00925L170.92 3.40925H175.18V10.9092H164.2V12.2292H174.82V17.6292H164.2V19.0092H175.18V25.7292H168.52V32.6292H175.66V39.9492H168.52V41.0292L169.36 42.1692L170.62 41.1492H175.48V46.9092L173.86 48.3492ZM120.7 26.2692V17.5692H138.64V26.2692H120.7ZM175.18 31.6092H169.48V26.8692H175.18V31.6092ZM120.7 35.9892V27.6492H138.64V35.9892H120.7ZM120.58 55.9092V37.4892H138.64V55.9092H120.58ZM128.56 45.7092V47.9292H130.96V45.7092H128.56ZM206.98 0.889245V23.4492H181.36V0.889245H206.98ZM213.04 12.2892L213.58 10.9092H208.36V0.889245H235.54V10.9092H226.18L225.7 12.2892H235.24V38.4492H233.56L235.66 40.9092L235.6 43.4292H223.3L222.28 40.7292H221.26L220.12 43.4292H208.48V40.9692L210.52 38.4492H208.42V12.2892H213.04ZM197.5 9.28924H191.74V10.7292H197.5V9.28924ZM191.74 16.6092H197.5V15.2292H191.74V16.6092ZM225.04 21.4092V20.0292H218.2V21.4092H225.04ZM203.38 44.5092H235.96V56.0892H192.22L189.04 53.2092L186.4 56.2092H180.46V35.2092H189.52V44.5092H190.96V33.8892H180.46V24.7092H207.1V33.8892H203.38V35.2692H207.16V43.1292H203.38V44.5092ZM218.2 25.5492V26.9292H225.04V25.5492H218.2ZM218.2 31.1892V32.5692H225.04V31.1892H218.2Z" fill="#FAFAFA"/>
</svg>
