<svg width="237" height="57" viewBox="0 0 237 57" fill="none" xmlns="http://www.w3.org/2000/svg">
<path d="M55.1 0.889245V21.1692H3.02V0.889245H55.1ZM38.3 7.96925H19.22V9.46925H38.3V7.96925ZM19.22 15.2892H38.3V13.7292H19.22V15.2892ZM1.22 22.6092H57.08V32.2692H29.18V56.4492H15.92V54.6492L10.94 55.7292H0.8V46.7292H2.84V33.5892H1.22V22.6092ZM17.36 34.0092V32.2692H14.6V34.0092H17.36ZM56.24 46.1892L54.14 48.1092L57.02 50.3892V56.1492H45.74L43.34 54.2892L41.12 56.1492H30.38V50.8692L32.54 49.2492L30.38 47.4492V43.0692H41.42L42.98 44.2692L44.66 42.9492V41.9892H30.38V33.3492H56.24V46.1892ZM14.6 38.5692V40.3092H17.36V38.5692H14.6ZM14.6 44.9892V46.7292H17.36V44.9892H14.6ZM81.86 0.109245V1.84925H89.96V13.2492H88.46L87.8 17.4492H89.78V27.7692H82.58V29.2092H89.84V39.6492H85.82L89.96 42.9492V54.8292H84.62L81.5 50.2092V56.2092H69.5V50.3892L66.5 54.8292H61.16V42.9492L65.3 39.6492H61.22V29.2092H68.18V27.7692H61.82V17.4492H63.8L63.14 13.2492H61.46V1.84925H68.6V0.109245H81.86ZM117.62 16.4892V29.8692H116.06V55.9092H105.02V29.8692H103.34V50.2692L98.36 56.1492H91.52V1.18924H116.3V9.04925L110.96 14.5092H103.34V16.4892H117.62ZM76.4 17.4492L77 13.2492H74.54L75.2 17.4492H76.4ZM176.78 27.1692H166.04V29.5692H176.12V55.9692H139.82V29.5692H149.18V27.1692H139.64V14.3892H149.18V12.2892H140V0.769247H176V7.72925L171.74 12.2892H166.04V14.3892H176.78V27.1692ZM121.4 16.4892V1.12925H137.96V16.4892H121.4ZM121.4 33.7692V18.0492H137.96V33.7692H121.4ZM121.28 41.2692L124.52 35.3292H137.96V56.1492H121.28V41.2692ZM161.48 45.1692V40.3092H154.16V45.1692H161.48ZM227.24 5.20925H236.84V55.9092H223.58V48.1692L225.32 46.1292V19.1292H224.06L221.78 56.0292H211.88V41.0292L214.22 19.1292H212.96V5.20925H214.94V0.289246H227.24V5.20925ZM181.64 8.20925V0.769247H211.58V5.80925L209.12 8.20925H202.7V9.58925H211.58V17.8692H202.7V19.4892H210.98V37.6692H202.94V39.1092H210.32V45.6492H202.94V47.1492H210.44V56.0892H181.46V47.1492H188.96V45.6492H182V39.1092H188.96V37.6692H181.52V19.4892H189.14V17.8692H181.22V9.58925H189.14V8.20925H181.64ZM192.26 25.3092H189.8V26.7492H192.26V25.3092ZM202.22 26.7492V25.3092H199.7V26.7492H202.22ZM189.8 31.7292H192.26V30.2892H189.8V31.7292ZM199.7 31.7292H202.22V30.2892H199.7V31.7292Z" fill="#222222"/>
</svg>
